<svg width="100" height="123" viewBox="0 0 488 123" fill="none" xmlns="http://www.w3.org/2000/svg">
<path d="M32.0711 64.1422C49.7835 64.1422 64.1422 49.7835 64.1422 32.0711C64.1422 14.3587 49.7835 0 32.0711 0C14.3587 0 0 14.3587 0 32.0711C0 49.7835 14.3587 64.1422 32.0711 64.1422Z" fill="#F2F2F2"/>
<path d="M248.099 0V6.40089L216.028 0H199.959V64.2089H216.028V57.808L248.099 64.2089H264.168V0H248.099Z" fill="#F2F2F2"/>
<path d="M400.123 64.2089L432.194 0L464.265 64.2089H400.123Z" fill="#F2F2F2"/>
<path d="M9.26795 101.48H0V97.0125H23.67V101.48H14.402V122.149H9.26795V101.48Z" fill="#F2F2F2"/>
<path d="M95.9462 97.0125H101.347L113.482 122.149H108.148L106.148 117.949H91.4789L89.5453 122.149H84.1445L95.9462 97.0125ZM104.147 113.748L98.6799 102.347L93.4125 113.748H104.147Z" fill="#F2F2F2"/>
<path d="M179.49 97.0125H184.624L193.759 106.214L202.893 97.0125H208.028V122.149H202.893V104.08L193.759 112.881L184.624 104.08V122.149H179.49V97.0125Z" fill="#F2F2F2"/>
<path d="M285.707 97.0125H291.108L303.243 122.149H297.909L295.908 117.949H281.24L279.306 122.149H273.905L285.707 97.0125ZM293.908 113.748L288.441 102.347L283.173 113.748H293.908Z" fill="#F2F2F2"/>
<path d="M369.249 97.0125H382.051C383.985 97.0125 385.652 97.2125 387.052 97.6125C388.452 98.0126 389.652 98.6127 390.586 99.3461C391.519 100.08 392.186 101.013 392.653 102.146C393.119 103.213 393.319 104.48 393.319 105.88C393.319 106.814 393.186 107.681 392.986 108.547C392.786 109.414 392.386 110.148 391.919 110.881C391.452 111.614 390.852 112.215 390.186 112.748C389.452 113.281 388.652 113.748 387.719 114.148L393.186 122.216H386.918L382.184 115.082H382.051H374.317V122.216H369.183V97.0125H369.249ZM382.184 110.614C383.118 110.614 383.985 110.481 384.718 110.281C385.452 110.081 386.052 109.748 386.518 109.347C386.985 108.947 387.385 108.414 387.585 107.881C387.852 107.281 387.919 106.614 387.919 105.947C387.919 104.547 387.452 103.48 386.452 102.68C385.518 101.946 384.051 101.546 382.118 101.546H374.317V110.681H382.184V110.614Z" fill="#F2F2F2"/>
<path d="M470.465 97.0125H475.865L488 122.149H482.666L480.666 117.949H465.997L464.064 122.149H458.663L470.465 97.0125ZM478.666 113.748L473.198 102.347L467.931 113.748H478.666Z" fill="#F2F2F2"/>
</svg>
